<?xml version="1.0" standalone="no"?>
<!DOCTYPE svg PUBLIC "-//W3C//DTD SVG 20010904//EN"
 "http://www.w3.org/TR/2001/REC-SVG-20010904/DTD/svg10.dtd">
<svg version="1.0" xmlns="http://www.w3.org/2000/svg"
 width="512.000000pt" height="512.000000pt" viewBox="0 0 512.000000 512.000000"
 preserveAspectRatio="xMidYMid meet">
<metadata>
Created by potrace 1.14, written by Peter Selinger 2001-2017
</metadata>
<g transform="translate(0.000000,512.000000) scale(0.100000,-0.100000)"
fill="#000000" stroke="none">
<path d="M1570 4945 l0 -175 90 0 90 0 0 175 0 175 -90 0 -90 0 0 -175z"/>
<path d="M3035 5101 c-93 -27 -184 -80 -256 -151 -72 -71 -109 -128 -148 -229
l-26 -66 -3 -1301 -2 -1302 -68 -50 c-218 -162 -376 -415 -427 -685 -19 -103
-19 -311 0 -414 43 -227 154 -433 319 -591 221 -212 470 -312 776 -312 306 0
555 100 776 312 165 158 276 364 319 591 19 103 19 311 0 414 -51 270 -209
523 -427 685 l-68 51 0 168 0 169 -90 0 -90 0 0 -205 c0 -121 4 -213 11 -227
5 -13 38 -41 72 -63 129 -83 256 -225 325 -360 80 -159 108 -291 99 -473 -11
-241 -108 -455 -283 -623 -81 -76 -133 -113 -229 -161 -219 -109 -467 -129
-695 -56 -299 96 -525 329 -616 635 -32 108 -43 285 -25 399 42 255 201 499
418 639 34 22 67 50 72 63 8 16 11 436 11 1321 0 1265 1 1301 20 1363 37 120
111 205 230 262 60 29 73 31 170 31 97 0 110 -2 173 -32 76 -36 163 -116 196
-181 39 -77 51 -147 51 -309 l0 -153 91 0 91 0 -4 198 c-5 215 -15 261 -83
378 -68 118 -223 232 -361 268 -83 21 -240 20 -319 -3z"/>
<path d="M1055 4870 l-60 -60 125 -125 125 -125 65 65 65 65 -120 120 c-66 66
-124 120 -130 120 -6 0 -37 -27 -70 -60z"/>
<path d="M2075 4810 l-120 -120 65 -65 65 -65 125 125 125 125 -60 60 c-33 33
-64 60 -70 60 -6 0 -64 -54 -130 -120z"/>
<path d="M1587 4690 c-222 -38 -380 -257 -348 -485 31 -215 206 -365 426 -365
192 0 348 113 409 298 21 62 22 189 2 253 -49 158 -179 273 -342 299 -66 11
-79 11 -147 0z m197 -208 c82 -45 126 -121 126 -219 0 -71 -24 -125 -76 -175
-51 -49 -100 -68 -171 -68 -140 1 -247 111 -246 252 1 86 41 157 116 204 77
50 166 52 251 6z"/>
<path d="M2984 4428 c-12 -5 -27 -21 -33 -34 -8 -18 -11 -406 -11 -1382 l0
-1357 -55 -33 c-356 -213 -382 -747 -47 -994 117 -87 237 -123 387 -116 416
20 677 419 534 816 -41 113 -144 236 -246 294 l-53 30 0 1368 0 1367 -26 27
-27 26 -201 -1 c-116 0 -210 -5 -222 -11z"/>
<path d="M810 4270 l0 -90 175 0 175 0 0 90 0 90 -175 0 -175 0 0 -90z"/>
<path d="M2170 4270 l0 -90 175 0 175 0 0 90 0 90 -175 0 -175 0 0 -90z"/>
<path d="M3620 4010 l0 -90 175 0 175 0 0 90 0 90 -175 0 -175 0 0 -90z"/>
<path d="M1117 3852 c-64 -64 -117 -122 -117 -127 0 -6 27 -37 60 -70 l60 -60
125 125 125 125 -62 62 c-34 35 -65 63 -68 63 -3 0 -58 -53 -123 -118z"/>
<path d="M2022 3907 l-62 -62 125 -125 125 -125 60 60 c33 33 60 64 60 70 0
10 -230 245 -240 245 -3 0 -34 -28 -68 -63z"/>
<path d="M1570 3585 l0 -175 90 0 90 0 0 175 0 175 -90 0 -90 0 0 -175z"/>
<path d="M3620 3670 l0 -90 175 0 175 0 0 90 0 90 -175 0 -175 0 0 -90z"/>
<path d="M3620 3330 l0 -90 175 0 175 0 0 90 0 90 -175 0 -175 0 0 -90z"/>
<path d="M3620 2990 l0 -90 175 0 175 0 0 90 0 90 -175 0 -175 0 0 -90z"/>
<path d="M3620 2650 l0 -90 175 0 175 0 0 90 0 90 -175 0 -175 0 0 -90z"/>
</g>
</svg>
